<svg xmlns="http://www.w3.org/2000/svg" width="77.56" height="31.844" viewBox="0 0 77.56 31.844">
  <defs>
    <style>
      .cls-1 {
        fill: #fff;
        fill-rule: evenodd;
      }
    </style>
  </defs>
  <path class="cls-1" d="M1450.54,37.969c-0.06-.94-0.11-1.881-0.18-2.819a1.424,1.424,0,0,1,.97-1.718c0.84-.1,1.14.892,1.15,1.536a42.409,42.409,0,0,1-.27,4.637c-0.26,3.109-.28,3.079,2.72,2.405a4.249,4.249,0,0,0,2.44-1.55c1.58-1.9,3.56-3.461,4.67-5.759a0.939,0.939,0,0,1,1.14-.712,1.068,1.068,0,0,1,.33,1.349c-0.67,2.536-1.14,5.25-3.81,6.582-3.01,1.506-5.89,3.47-9.5,3.323a14.246,14.246,0,0,0-4.56.7,2.448,2.448,0,0,1-3.08-2.876c0.26-1.164,1.22-1.489,2.24-.618,1.55,1.323,3.31.218,4.95,0.538,0.42,0.083.56-.574,0.64-1.03A24.122,24.122,0,0,0,1450.54,37.969Zm18.7-9.762c-1.5-.335-2.98-1.579-2.81-2.361,0.16-.718,2.11-1.017,3.51-0.43a8.122,8.122,0,0,1,1.94,1.247,1.989,1.989,0,0,1,.62,2.268,1.878,1.878,0,0,1-1.9,1.338,5.053,5.053,0,0,0-2.21.65,1.2,1.2,0,0,0-.75,1.481,1.215,1.215,0,0,0,1.26.873c1.63,0.136,3.01-.609,4.45-1.172,0.59-.229,1.17-0.782,1.84-0.187a0.8,0.8,0,0,1,.23.909,1.649,1.649,0,0,1-1.67,1.1c-1.32.1-2.21,1.167-3.36,1.676a0.744,0.744,0,0,0-.22,1.028,2.419,2.419,0,0,1-.39,2.046c-0.2.313-.58,0.626-0.27,1.03a1.222,1.222,0,0,0,1.24.275c1.36-.173,2.72-0.347,4.29-0.545-0.9,2.475-2.97,1.028-4.33,1.618a9.772,9.772,0,0,1-4.74,1.105,1.4,1.4,0,0,1,.54-1.956c0.95-.6,1.52-3.117,1.05-4.305a2.278,2.278,0,0,1-1.94-1.053,5.4,5.4,0,0,1,.2-3.811,2.9,2.9,0,0,1,2.48-1.862C1468.89,29.144,1469.43,29.02,1469.24,28.207Zm-32.95-1.986c0.17-2.415.69-4.822,0.09-7.255a4.048,4.048,0,0,1,.18-1.3c0.11-1,.66-1.633,1.64-1.372s0.65,1.108.45,1.809c-0.7,2.467.23,5.061-.58,7.525a0.362,0.362,0,0,0,.31.49,0.706,0.706,0,0,0,.56-0.229c1.4-3.7,5.37-3.037,7.98-4.661a14.361,14.361,0,0,1,3.84-1.548c0.94-.249,2.32-0.679,2.68.735,0.31,1.209-.27,2.145-1.69,2.573a38.831,38.831,0,0,1-8.34,1.5c-2.33.171-3.25,1.856-4.48,3.294-0.52.613-.79,1.663-1.83,1.376-1.18-.327-0.7-1.452-0.8-2.276A4.91,4.91,0,0,1,1436.29,26.221Zm1.75,8.021c0.09-1.442-.68-1.928-1.97-1.789-0.66.069-1.3,0.287-1.95,0.369a1.472,1.472,0,0,1-1.6-.642,0.922,0.922,0,0,1,.08-1.214,1.411,1.411,0,0,1,1.66-.469c1.71,1.09,3.54.665,5.33,0.6a1.34,1.34,0,0,1,1.57,1.308,2.873,2.873,0,0,1-.01,1.306,67.584,67.584,0,0,0-2.06,7.11,1.128,1.128,0,0,1-1.41.863,0.971,0.971,0,0,1-.77-1.269c0.27-1.573.58-3.138,0.88-4.707C1437.88,35.221,1437.95,34.732,1438.04,34.242Zm18.7,2.01a1.412,1.412,0,0,1-1.37,1.739c-0.9.021-1.08-.775-1.11-1.551a15.475,15.475,0,0,0-.97-4.025c-0.82-2.529-2.79-3.128-5.02-1.585-0.59.4-1.13,1.083-1.9,0.553a1.69,1.69,0,0,1-.97-1.931,1.462,1.462,0,0,1,1.79-.89,20.742,20.742,0,0,0,5.29.244,2.307,2.307,0,0,1,2.15,1.028A18.894,18.894,0,0,1,1456.74,36.251Zm-55.46-2.1c-0.62-.637-1.24-0.189-1.81.06-0.42.179-.8,0.511-1.14-0.005a1.769,1.769,0,0,1-.33-1.572,0.912,0.912,0,0,1,1.03-.658,12.209,12.209,0,0,0,3.96-.1,1.377,1.377,0,0,1,1.39,1.006,1.15,1.15,0,0,1-.43,1.321,1.4,1.4,0,0,0-.84,1.188c1.86-.527,2.39,1.522,3.9,1.942,0.68,0.191.64,0.885,0.15,1.34-0.67.629-1.48,1.186-2.28,0.257a11.1,11.1,0,0,1-1.53-2.361c-0.39-.776-0.72-0.736-1.39-0.329-1.09.663-1.78,1.941-3.21,2.187-0.21-.879.64-1.045,0.82-1.586C1399.97,35.834,1401.28,35.407,1401.28,34.147Zm10.02-.612a6.074,6.074,0,0,1-.33,3.071,1.278,1.278,0,0,1-1.66.734,1.04,1.04,0,0,1-.62-1.359,10.56,10.56,0,0,0,.15-1.482,1.142,1.142,0,0,0-.46-1.312,1,1,0,0,0-1.1.551c-0.47.505-.85,0.4-1.17-0.166s-0.18-.959.47-1.095c1.19-.245,2.31-0.456,2.83-1.848,0.23-.616.82-0.3,1.15,0.189A4.8,4.8,0,0,1,1411.3,33.536Zm37.53,1.549c-0.1,1.894-1.34,3.48-1.44,5.4a1.05,1.05,0,0,1-1.2.919c-0.73-.19-0.48-0.839-0.36-1.387,0.27-1.293.48-2.6,0.76-3.889a2.841,2.841,0,0,1,.81-1.6c0.31-.276.57-0.763,1.11-0.467A0.932,0.932,0,0,1,1448.83,35.085Zm-45.56-8.612c0.51,0.162.88,0.642,0.44,0.941-1.21.817-1.58,2.2-2.48,3.205-0.35.4-.76,0.9-1.32,0.225,0.09-.746.19-1.494,0.28-2.24C1400.5,26.061,1400.75,25.878,1403.27,26.473Zm12.6,6.515c-0.85-.054-1.24-0.044-1.62-0.113a0.975,0.975,0,0,1-.94-0.8c-0.06-.627.53-0.617,0.93-0.711,1.4-.327,2.87-0.014,4.27-0.5a0.6,0.6,0,0,1,.86.508,1,1,0,0,1-.87,1.062C1417.45,32.531,1416.49,33.141,1415.87,32.987Zm19.15-11.434c-0.13-.559-0.61-0.449-0.95-0.31-1.74.714-3.4,0.039-5.06-.309-1.79-.376-2.06-1.161-1-2.679a5.352,5.352,0,0,0,1.19-1.776c0.29-1.255-.25-2.063-1.7-2.273-1.19-.172-1.52.624-1.59,1.618-0.08.94-.16,1.879-0.25,2.819a1.3,1.3,0,0,1-1.74,1.243,6.4,6.4,0,0,1-2.98-1.724c-1.65-.9-2.55.16-3.41,1.3a1.636,1.636,0,0,0,2.09,1.967c0.65-.1,1.28-0.437,1.8.3a2.7,2.7,0,0,0,2.66,1.034c1.41-.119,1.89.558,1.91,1.851a6.982,6.982,0,0,1-.38,2.437,13.1,13.1,0,0,1-2.14,3.334,3.663,3.663,0,0,0,.57,4.8c1.39,1.039,3.65.919,4.46-.491,1.15-2.017,2.4-4.96.23-7.239-1.02-1.078-.04-1.97.21-2.908a1.458,1.458,0,0,1,1.66-1.06c1.36,0.031,2.54-.712,3.81-1.074A0.736,0.736,0,0,0,1435.02,21.553Zm-7.82,9.779c-0.89.348-1.38,0.6-.47,1.475a0.537,0.537,0,0,1-.18.849,0.767,0.767,0,0,1-.93,0,1.51,1.51,0,0,1-.67-1.514,3.053,3.053,0,0,1,1.04-2.237,0.8,0.8,0,0,1,1.39.017C1427.74,30.416,1427.84,31.08,1427.2,31.332Zm-7.97,6.3c-0.01-.221,0-0.443-0.02-0.665-0.18-2.052-.88-2.667-2.88-2.429a11.111,11.111,0,0,0-2.1.5,1.018,1.018,0,0,0-.83,1.249c0.3,1.053-.3,1.816-0.73,2.638-1.48,2.822-1.27,3.156,2.05,3.214C1418.75,42.21,1419.39,41.568,1419.23,37.637Zm-2.6,3.05a3.355,3.355,0,0,1-2.83-.5,0.761,0.761,0,0,1-.01-1.043c0.35-.683.7-1.364,1.02-2.059a1.33,1.33,0,0,1,1.05-1.12,1.5,1.5,0,0,1,1.21.994,2.754,2.754,0,0,1,.48,1.864C1417.59,39.628,1417.63,40.482,1416.63,40.687Zm-0.24-12.326c-0.1-.79.04-2.023-1.15-2.1-1.22-.076-1.34,1.08-1.59,1.972,0.08,0.829.32,1.627,1.3,1.594A1.34,1.34,0,0,0,1416.39,28.361Zm-0.94-.133a0.672,0.672,0,1,1,.33-0.579A0.509,0.509,0,0,1,1415.45,28.228Z" transform="translate(-1397.91 -14.188)"/>
</svg>
